ply
format ascii 1.0
comment Created by Blender 2.66 (sub 1) - www.blender.org, source file: 'estrella.blend'
element vertex 260
property float x
property float y
property float z
property float nx
property float ny
property float nz
property float s
property float t
element face 434
property list uchar uint vertex_indices
end_header
-0.621358 1.930824 0.497705 -0.624775 0.607288 0.490707 0.742485 0.290466
-0.805670 1.593770 0.512037 -0.790979 0.442061 0.422987 0.715965 0.247457
-0.603764 1.746018 0.668054 -0.641621 0.667928 0.377056 0.754617 0.260013
-0.726178 1.209282 1.123269 -0.886776 -0.256355 0.384503 0.305233 0.717385
-0.681163 1.225484 1.208476 -0.704520 -0.265145 0.658254 0.313459 0.718516
-0.674489 1.339909 1.226957 -0.688559 0.179418 0.702597 0.315745 0.727498
-0.854385 1.745434 0.261951 -0.667470 0.633625 0.391095 0.693309 0.281539
0.381666 2.111550 0.494438 0.400616 0.773705 0.490768 0.839469 0.370789
0.153924 2.275085 0.265445 0.160253 0.951659 0.261971 0.798980 0.378809
0.029510 2.180910 0.514272 0.031678 0.856319 0.515458 0.805712 0.346549
0.974192 1.288904 0.657841 0.964751 0.004212 -0.263009 0.432403 0.566891
0.886298 1.288904 0.459696 0.964599 -0.018403 0.262978 0.425303 0.540258
0.897219 1.510578 0.648729 0.887051 0.389966 -0.246986 0.459406 0.562861
0.256889 0.466259 0.571555 0.259743 -0.773797 0.577715 0.747515 0.721665
0.432119 0.396893 0.265445 0.446852 -0.856319 0.258858 0.782340 0.698509
0.479640 0.549269 0.514272 0.508560 -0.696982 0.505509 0.774571 0.732790
-0.680658 1.992567 0.265445 -0.701987 0.670156 0.240944 0.719553 0.311537
0.432119 2.180914 0.265445 0.452528 0.858058 0.242653 0.826977 0.396489
0.358600 1.017578 0.902772 -0.118259 -0.434828 0.892697 0.389103 0.634732
0.487065 1.044276 0.996823 -0.315134 -0.470168 0.824366 0.403787 0.626116
0.381547 1.288904 1.061371 -0.420057 0.000000 0.907468 0.424952 0.648912
0.153924 0.302722 0.265445 0.162633 -0.951659 0.260506 0.754040 0.680897
-0.621359 0.646980 0.497704 -0.624775 -0.607288 0.490707 0.646034 0.668904
-0.854384 0.832375 0.261952 -0.667470 -0.633595 0.391095 0.618492 0.624200
-0.680658 0.585240 0.265445 -0.701987 -0.670156 0.240944 0.656979 0.637327
0.358600 1.560231 0.902772 -0.118259 0.434828 0.892697 0.471250 0.674296
0.487066 1.533535 0.996821 -0.315134 0.470168 0.824366 0.459284 0.644469
0.442352 1.835144 0.734458 0.278390 0.692709 0.665273 0.542728 0.639844
0.770510 1.751129 0.668298 0.654378 0.755974 0.016541 0.498464 0.575254
0.681969 1.804998 0.537490 0.671407 0.680441 0.293558 0.532357 0.556798
0.230813 2.028537 0.668054 0.224525 0.697165 0.680807 0.839973 0.341649
0.161098 1.804996 0.859402 0.161596 0.485092 0.859371 0.857371 0.307888
-0.052157 1.999245 0.733535 -0.060244 0.669332 0.740501 0.817871 0.313626
0.077034 1.535446 0.975613 0.347331 0.427045 0.834834 0.875366 0.270948
-0.136775 1.727917 0.902772 0.137242 0.658834 0.739647 0.833775 0.272844
-0.260292 2.123962 0.537491 -0.281137 0.794061 0.538835 0.781361 0.322416
-0.358313 1.895606 0.733534 -0.297555 0.744224 0.597949 0.788895 0.282252
-0.805669 0.984038 0.512037 -0.790979 -0.442030 0.422987 0.253705 0.674877
-0.621359 0.646980 0.497704 -0.624775 -0.607288 0.490707 0.277849 0.643632
-0.603764 0.831789 0.668054 -0.641621 -0.667928 0.377056 0.284788 0.665161
-0.507032 1.288903 1.294524 -0.089419 -0.002380 0.995972 0.330233 0.721242
-0.439595 1.474520 1.231367 0.016999 0.531632 0.846797 0.339961 0.739313
-0.602679 1.401972 1.242507 -0.375591 0.441816 0.814692 0.322529 0.732751
0.248969 1.288904 0.975612 0.068087 0.000000 0.997650 0.414818 0.669590
0.077034 1.535446 0.975613 0.347331 0.427045 0.834834 0.429197 0.724376
0.142073 1.288903 1.064047 0.571490 0.000000 0.820582 0.399712 0.686200
-0.136774 0.849889 0.902772 0.137272 -0.658834 0.739647 0.338446 0.656859
0.077034 1.042361 0.975613 0.347331 -0.427045 0.834834 0.371232 0.661444
-0.203506 0.895100 0.999303 0.222480 -0.713370 0.664479 0.337406 0.669365
-0.406128 1.836664 0.845429 -0.216987 0.854579 0.471786 0.793146 0.263992
-0.203510 1.682701 0.999306 0.230628 0.712943 0.662160 0.833800 0.255197
-0.603764 0.831789 0.668054 -0.641621 -0.667928 0.377056 0.625724 0.696729
-0.358312 0.682201 0.733535 -0.297555 -0.744224 0.597949 0.662411 0.715782
-0.406126 0.741144 0.845434 -0.211402 -0.855800 0.472060 0.648320 0.728531
-0.603764 1.746018 0.668054 -0.641621 0.667928 0.377056 0.261491 0.820449
-0.805670 1.593770 0.512037 -0.790979 0.442061 0.422987 0.207706 0.771376
-0.809469 1.564037 0.647504 -0.888302 0.428510 0.165105 0.239586 0.765304
-0.842852 1.288904 0.534299 -0.894284 0.000000 0.447462 0.234253 0.712243
0.774538 1.288904 1.168495 -0.057344 -0.007263 0.998321 0.432093 0.611307
0.846849 1.127153 1.115422 0.176641 -0.502152 0.846522 0.422435 0.604616
0.977564 1.340792 1.111148 0.631825 0.215857 0.744438 0.436219 0.599639
0.968844 1.156745 1.069903 0.716514 -0.476455 0.509445 0.425766 0.597255
1.017849 1.311899 1.051355 0.966063 0.088229 0.242683 0.434760 0.595097
0.681969 0.772809 0.537490 0.682852 -0.668752 0.294046 0.376072 0.577451
0.824163 1.046855 0.507986 0.908261 -0.403974 0.108798 0.401507 0.559556
0.770508 0.826678 0.668295 0.657857 -0.752739 0.023927 0.390661 0.582679
0.897221 1.067238 0.648730 0.886013 -0.397076 -0.239265 0.411182 0.571273
0.442352 1.835144 0.734458 0.278390 0.692709 0.665273 0.878095 0.343919
0.681969 1.804998 0.537490 0.671407 0.680441 0.293558 0.892743 0.384225
0.358600 1.560231 0.902772 -0.118259 0.434828 0.892697 0.899832 0.303246
0.161098 0.772811 0.859402 0.165410 -0.496933 0.851863 0.716669 0.764800
0.442352 0.742665 0.734459 0.265358 -0.691549 0.671773 0.757726 0.767364
0.077034 1.042361 0.975613 0.347331 -0.427045 0.834834 0.691713 0.797072
0.358600 1.017578 0.902772 -0.118259 -0.434828 0.892697 0.731211 0.804572
0.681969 0.772809 0.537490 0.682852 -0.668752 0.294046 0.800438 0.762594
0.823509 1.535447 0.514269 0.906766 0.410840 0.094424 0.467203 0.540047
-0.809470 1.013770 0.647503 -0.885067 -0.433912 0.168371 0.265054 0.686499
-0.260292 0.453846 0.537491 -0.281137 -0.794061 0.538835 0.694984 0.690081
-0.136774 0.849889 0.902772 0.137272 -0.658834 0.739647 0.675394 0.759514
-0.052156 0.578561 0.733534 -0.050111 -0.669118 0.741447 0.703922 0.727004
0.029510 0.396897 0.514272 0.014649 -0.858058 0.513291 0.727885 0.701138
-0.854384 0.832375 0.261952 -0.667470 -0.633595 0.391095 0.242569 0.643830
-0.153634 2.275085 -0.232212 -0.161504 0.951994 -0.259987 0.737330 0.403548
-0.266602 2.139909 -0.470158 -0.277078 0.818720 -0.502853 0.703210 0.420076
-0.431829 2.180914 -0.232212 -0.448012 0.855892 -0.258217 0.709506 0.382664
0.000145 2.321099 0.016617 0.000000 0.999969 0.000000 0.768733 0.391291
-0.306014 2.270579 0.016617 -0.319895 0.947386 0.009156 0.741238 0.370284
-0.136776 2.270578 0.290457 -0.151280 0.947386 0.282022 0.774768 0.357543
-0.582204 2.123967 0.016616 -0.602313 0.798212 0.000122 0.713142 0.347339
-0.442934 2.166939 0.290458 -0.453322 0.843837 0.287057 0.746979 0.333991
0.442352 0.742665 0.734459 0.265358 -0.691549 0.671773 0.370840 0.606664
-0.842299 1.288904 0.668469 -0.991394 0.006348 0.130619 0.253487 0.719412
0.801680 1.895611 0.016617 0.670614 0.730308 0.129978 0.863510 0.452892
0.680947 1.992567 -0.232212 0.577349 0.793756 -0.191168 0.826662 0.470751
0.582494 2.123967 0.016616 0.602588 0.798029 -0.000061 0.827823 0.431684
-0.628854 1.700387 0.790602 -0.623341 0.722007 0.300211 0.281234 0.797209
0.853977 1.727921 0.290456 0.722648 0.563372 0.400433 0.900629 0.426815
0.664759 1.999251 0.290457 0.685568 0.669118 0.286721 0.860027 0.410111
-0.628854 0.877420 0.790602 -0.640919 -0.708396 0.295602 0.291128 0.676506
-0.406126 0.741144 0.845434 -0.211402 -0.855800 0.472060 0.311173 0.661918
0.853977 1.727921 0.290456 0.722648 0.563372 0.400433 0.497883 0.477971
-0.016017 1.510835 1.067459 0.425977 0.498733 0.754814 0.401661 0.728357
-0.203510 1.682701 0.999306 0.230628 0.712943 0.662160 0.389234 0.784080
0.582494 0.453840 0.016617 0.602588 -0.798029 -0.000061 0.814368 0.683782
0.680947 0.585240 -0.232212 0.577349 -0.793756 -0.191198 0.848902 0.665785
0.801680 0.682196 0.016617 0.670614 -0.730308 0.129978 0.848902 0.706486
0.664759 0.578556 0.290457 0.689261 -0.669332 0.277261 0.809154 0.722050
0.853977 0.849886 0.290456 0.723106 -0.559648 0.404797 0.841844 0.750979
1.472176 1.288904 -0.267537 0.991058 0.001923 0.133183 0.377405 0.480753
1.453682 1.327912 -0.413710 0.851558 0.158361 -0.499710 0.372170 0.475085
1.454079 1.383755 -0.338225 0.917692 0.388531 -0.082644 0.376922 0.474493
0.853977 0.849886 0.290456 0.723106 -0.559648 0.404797 0.375157 0.548216
-0.431829 0.396893 -0.232212 -0.448012 -0.855892 -0.258217 0.718755 0.597627
-0.266603 0.437901 -0.470155 -0.277078 -0.818720 -0.502853 0.750263 0.576195
-0.153634 0.302722 -0.232212 -0.161504 -0.951994 -0.259987 0.749716 0.614166
-0.582204 0.453840 0.016617 -0.602313 -0.798212 0.000122 0.687773 0.616069
-0.306014 0.307228 0.016617 -0.319895 -0.947386 0.009156 0.721008 0.632061
-0.442934 0.410869 0.290458 -0.453322 -0.843837 0.287057 0.690015 0.653290
0.000145 0.256708 0.016616 0.000000 -1.000000 0.000000 0.752131 0.648013
-0.136776 0.307229 0.290457 -0.151280 -0.947386 0.282022 0.724056 0.668283
-0.479350 2.028538 -0.481039 -0.483963 0.700552 -0.524369 0.677459 0.400671
-0.664470 1.999250 -0.257223 -0.688223 0.670217 -0.277657 0.678397 0.363510
-0.801252 1.896142 0.014566 -0.692312 0.721580 0.002075 0.681811 0.320986
-0.681679 1.804998 -0.504257 -0.693197 0.488754 -0.529679 0.642480 0.382594
-0.853022 1.730865 -0.257053 -0.594409 0.668142 -0.447462 0.641400 0.340518
-0.820643 1.533386 -0.491942 -0.579150 0.434523 -0.689749 0.605386 0.364051
0.443224 2.166939 -0.257224 0.464675 0.838252 -0.285226 0.794150 0.449453
0.306304 2.270579 0.016617 0.319895 0.947386 -0.009156 0.797043 0.411397
0.339489 2.101408 -0.501376 0.339183 0.775536 -0.532395 0.766195 0.472180
0.137066 2.270578 -0.257224 0.151189 0.946104 -0.286355 0.763000 0.426201
-0.029220 2.180910 -0.481039 -0.026887 0.847316 -0.530381 0.729484 0.438426
1.454079 1.194053 -0.338226 0.925657 -0.365215 -0.098727 0.371477 0.482443
1.430471 1.234273 -0.442090 0.730338 -0.178716 -0.659261 0.368068 0.477875
0.339489 2.101408 -0.501376 0.339183 0.775536 -0.532395 0.314736 0.291509
0.680947 1.992567 -0.232212 0.577349 0.793756 -0.191168 0.411412 0.350111
0.873028 1.794808 -0.455379 0.444441 0.721213 -0.531297 0.370662 0.406458
0.668143 1.120737 -0.699329 0.597705 -0.169317 -0.783593 0.311859 0.471864
0.667322 1.459490 -0.699119 0.598132 0.171331 -0.782830 0.315061 0.437004
1.082119 1.394365 -0.586072 0.325999 0.135899 -0.935545 0.352287 0.457883
0.339488 0.476398 -0.501376 0.339183 -0.775536 -0.532395 0.297679 0.529171
0.606555 0.830993 -0.633466 0.508225 -0.508560 -0.694998 0.309451 0.497800
0.872999 0.783011 -0.455380 0.444411 -0.721183 -0.531358 0.333492 0.503944
0.801680 0.682196 0.016617 0.670614 -0.730308 0.129978 0.350526 0.536985
0.680947 0.585240 -0.232212 0.577349 -0.793756 -0.191198 0.329873 0.529992
1.005417 0.796178 -0.286647 0.530595 -0.837031 -0.133580 0.348149 0.508725
1.082309 1.467015 0.263610 0.706076 0.269814 0.654683 0.431371 0.501156
-0.029220 0.396897 -0.481039 -0.026887 -0.847316 -0.530381 0.778009 0.592155
0.137065 0.307229 -0.257224 0.151189 -0.946104 -0.286355 0.781305 0.627714
0.306303 0.307227 0.016617 0.319895 -0.947386 -0.009156 0.782677 0.664911
0.339488 0.476398 -0.501376 0.339183 -0.775536 -0.532395 0.824140 0.610850
0.443223 0.410868 -0.257224 0.464675 -0.838252 -0.285226 0.815735 0.645785
0.956815 0.964212 -0.558313 0.339885 -0.435804 -0.833369 0.336965 0.488090
-0.853022 0.846944 -0.257054 -0.594409 -0.668142 -0.447462 0.215301 0.596178
-0.820642 1.044423 -0.491945 -0.579150 -0.434523 -0.689718 0.190274 0.573754
-0.681679 0.772809 -0.504257 -0.693197 -0.488754 -0.529679 0.221779 0.567506
-0.801253 0.681666 0.014563 -0.692282 -0.721580 0.002075 0.650479 0.598232
-0.853022 0.846944 -0.257054 -0.594409 -0.668142 -0.447462 0.650970 0.553320
-0.664471 0.578558 -0.257224 -0.688223 -0.670217 -0.277657 0.687936 0.577059
-0.681679 0.772809 -0.504257 -0.693197 -0.488754 -0.529679 0.690085 0.534979
-0.479350 0.549269 -0.481039 -0.483963 -0.700552 -0.524369 0.721866 0.560516
-0.443625 1.836661 -0.696938 -0.562944 0.589160 -0.579577 0.646431 0.424203
-0.636746 1.562444 -0.696036 -0.740959 0.331278 -0.584094 0.605058 0.402599
-0.636746 1.562444 -0.696036 -0.740959 0.331278 -0.584094 0.118939 0.496666
-0.744078 1.288904 -0.642120 -0.692007 0.000000 -0.721854 0.154508 0.543505
-0.820643 1.533386 -0.491942 -0.579150 0.434523 -0.689749 0.096324 0.562488
0.606554 1.746813 -0.633466 0.508133 0.508621 -0.694998 0.317735 0.392002
0.360946 1.900012 -0.696404 0.421613 0.696951 -0.580065 0.274011 0.350986
0.360946 1.900012 -0.696404 0.421613 0.696951 -0.580065 0.748017 0.506496
0.050131 2.003551 -0.697295 0.097629 0.806757 -0.582720 0.716124 0.474399
0.801680 1.895611 0.016617 0.670614 0.730308 0.129978 0.465697 0.400493
1.005365 1.781641 -0.286644 0.530595 0.837031 -0.133518 0.395670 0.423460
1.091908 0.862309 -0.114255 0.590167 -0.789026 0.170660 0.361781 0.512521
0.956809 1.613605 -0.558314 0.339976 0.436140 -0.833155 0.355577 0.433427
1.091923 1.715492 -0.114249 0.590136 0.789026 0.170629 0.413276 0.444951
0.050132 0.574244 -0.697278 0.097598 -0.806757 -0.582720 0.804804 0.564773
0.360942 0.677813 -0.696430 0.421613 -0.696951 -0.580035 0.847328 0.579838
0.360942 0.677813 -0.696430 0.421613 -0.696951 -0.580035 0.291042 0.511631
-0.636754 1.015367 -0.696047 -0.740959 -0.331278 -0.584094 0.200381 0.543261
-0.443616 0.741157 -0.696953 -0.562944 -0.589190 -0.579577 0.234516 0.542969
-0.443616 0.741157 -0.696953 -0.562944 -0.589190 -0.579577 0.731081 0.522410
0.164257 1.003097 -1.308952 0.403180 -0.713981 -0.572375 0.255234 0.483621
0.296485 1.062822 -1.245041 0.686239 -0.483657 -0.543229 0.263134 0.478280
0.164250 1.574708 -1.308971 0.398694 0.722953 -0.564226 0.242422 0.445857
0.020423 1.614963 -1.319173 0.100772 0.810968 -0.576281 0.228938 0.446293
0.320542 1.370865 -1.289859 0.830348 0.146672 -0.537522 0.258799 0.458010
0.296490 1.514991 -1.245044 0.688742 0.483505 -0.540208 0.256273 0.446134
-0.270855 1.171771 -1.353146 -0.716117 -0.317423 -0.621601 0.226345 0.487495
-0.189774 1.052522 -1.347991 -0.536454 -0.574206 -0.618427 0.234887 0.490721
-0.443625 1.836661 -0.696938 -0.562944 0.589160 -0.579577 0.122568 0.425424
-0.189779 1.525284 -1.347991 -0.535966 0.581408 -0.612110 0.215986 0.462023
0.050131 2.003551 -0.697295 0.097629 0.806757 -0.582720 0.202767 0.350646
-0.108815 1.635602 -1.274775 -0.265328 0.778466 -0.568804 0.215505 0.447151
-0.331610 1.288904 -1.304094 -0.820246 -0.001526 -0.571978 0.216533 0.485326
-0.266602 2.139909 -0.470158 -0.277078 0.818720 -0.502853 0.117737 0.337898
0.050132 0.574244 -0.697278 0.097598 -0.806757 -0.582720 0.273434 0.526932
0.020425 0.962845 -1.319164 0.100833 -0.810999 -0.576281 0.248540 0.489173
-0.108816 0.942208 -1.274788 -0.265328 -0.778466 -0.568834 0.243039 0.495326
-0.270853 1.406036 -1.353139 -0.728690 0.324809 -0.602863 0.216664 0.474278
-0.266603 0.437901 -0.470155 -0.277078 -0.818720 -0.502853 0.263492 0.556540
0.321230 1.211008 -1.290949 0.835231 -0.137852 -0.532304 0.260714 0.468683
0.020754 1.337154 -1.582315 0.050935 0.249977 -0.966887 0.237949 0.469278
0.037861 1.248261 -1.582900 0.165197 -0.189978 -0.967772 0.240083 0.472434
-0.064883 1.251734 -1.563727 -0.406659 -0.193457 -0.892850 0.236151 0.474294
-0.003472 1.111761 -1.512124 -0.061800 -0.627949 -0.775750 0.241577 0.478856
0.172789 1.407477 -1.489002 0.571978 0.380200 -0.726798 0.243622 0.462518
0.175681 1.204454 -1.508358 0.595904 -0.281442 -0.752068 0.246874 0.471609
-0.003472 1.466044 -1.512125 -0.070132 0.622150 -0.779717 0.233889 0.463387
-0.142371 1.323876 -1.518679 -0.588672 0.145726 -0.795099 0.230725 0.473157
-0.854385 1.745434 0.261951 -0.667470 0.633625 0.391095 0.123158 0.755308
-0.801252 1.896142 0.014566 -0.692312 0.721580 0.002075 0.055299 0.711206
-1.030264 1.762955 -0.038725 -0.477340 0.877041 -0.053987 0.104983 0.674313
-0.853022 1.730865 -0.257053 -0.594409 0.668142 -0.447462 0.063455 0.628174
-1.382715 1.100175 -0.261020 -0.510514 -0.630299 -0.584826 0.179659 0.626704
-1.032881 1.527088 0.350279 -0.565722 0.435072 0.700461 0.176952 0.713565
-1.382716 1.477633 -0.261019 -0.508316 0.637745 -0.578661 0.153996 0.635537
-1.032869 1.050718 0.350280 -0.564898 -0.431959 0.703024 0.221959 0.667030
-0.801253 0.681666 0.014563 -0.692282 -0.721580 0.002075 0.239740 0.615338
-1.030296 0.814859 -0.038728 -0.477340 -0.877041 -0.053987 0.216517 0.622938
-1.301524 1.288904 -0.415782 -0.464461 -0.001465 -0.885586 0.163340 0.618218
-1.096067 1.637054 0.149615 -0.502792 0.735405 0.454207 0.143426 0.693661
-1.363253 1.588361 -0.057135 -0.604633 0.794549 0.055239 0.153238 0.654425
-1.088538 1.288904 0.356808 -0.538194 -0.006043 0.842769 0.201451 0.686097
-1.331713 1.127874 0.190802 -0.635792 -0.396619 0.662130 0.192889 0.654865
-1.356711 1.413469 0.193448 -0.660756 0.317026 0.680319 0.174176 0.665791
-1.096081 0.940763 0.149609 -0.493271 -0.744285 0.450179 0.215131 0.644210
-1.363253 0.989446 -0.057134 -0.605213 -0.794580 0.048463 0.191033 0.636066
-1.552227 1.381008 -0.135036 -0.856594 0.510727 -0.073275 0.167001 0.642323
-1.565350 1.326622 -0.073582 -0.936064 0.201575 0.288278 0.171112 0.644478
-1.554751 1.300085 -0.240274 -0.829463 0.051912 -0.556108 0.169104 0.635969
-1.553314 1.250782 -0.053191 -0.881252 -0.243965 0.404767 0.175478 0.643749
-1.558789 1.204686 -0.150993 -0.883175 -0.449995 -0.132206 0.175124 0.638234
0.631846 0.863636 0.908681 0.101321 -0.774132 0.624836 0.396190 0.605212
0.631846 1.714170 0.908685 0.093356 0.774957 0.625050 0.483659 0.616690
-0.406128 1.836664 0.845429 -0.216987 0.854579 0.471786 0.326955 0.833620
-0.520851 1.583059 1.125622 -0.309793 0.724631 0.615558 0.329664 0.758234
-0.703212 1.437924 1.104962 -0.801996 0.428327 0.416303 0.306031 0.739942
-0.314164 1.171232 1.243601 0.239082 -0.361309 0.901242 0.342542 0.704298
-0.439595 1.103289 1.231367 0.018830 -0.542161 0.840022 0.329760 0.703539
-0.226414 1.288904 1.242992 0.359142 0.000000 0.933256 0.355821 0.711468
-0.558932 1.024390 1.142681 -0.391034 -0.692496 0.606220 0.316152 0.699145
-0.314162 1.406574 1.243600 0.239082 0.361309 0.901242 0.353275 0.728170
-0.602680 1.175834 1.242505 -0.393445 -0.398541 0.828455 0.319707 0.713831
0.846849 1.450655 1.115422 0.198492 0.534074 0.821772 0.444452 0.607325
0.987336 1.186242 0.964298 0.926725 -0.373943 -0.035829 0.426621 0.590628
0.920790 1.519815 0.961722 0.732200 0.631062 0.256081 0.452416 0.594384
1.389613 1.375209 -0.053643 0.849269 0.233619 0.473434 0.391329 0.484476
1.371526 1.508335 -0.212087 0.780419 0.603961 0.161626 0.388115 0.470794
1.256192 1.538842 -0.007415 0.686087 0.596057 0.417096 0.407063 0.475408
1.256194 1.038969 -0.007419 0.692587 -0.599963 0.400372 0.378481 0.505146
1.371527 1.069476 -0.212088 0.776971 -0.608081 0.162816 0.371909 0.492525
1.414418 1.213798 -0.105051 0.886441 -0.241462 0.394787 0.381847 0.489826
1.217411 1.144098 0.144088 0.726249 -0.258675 0.636891 0.391937 0.509822
-0.016017 1.066972 1.067459 0.425977 -0.498733 0.754814 0.364140 0.675585
1.336200 1.029198 -0.364030 0.701285 -0.691977 -0.171239 0.363668 0.489243
1.300029 1.028670 -0.438523 0.562853 -0.637074 -0.526566 0.359638 0.487047
1.300029 1.549140 -0.438523 0.564348 0.635426 -0.526963 0.374692 0.459117
1.083146 1.188784 -0.587260 0.324015 -0.128574 -0.937254 0.347262 0.472885
1.318690 1.098160 -0.473174 0.524400 -0.353832 -0.774438 0.360593 0.482776
1.318692 1.479645 -0.473175 0.542497 0.334605 -0.770501 0.370892 0.463266
1.336201 1.548612 -0.364031 0.701468 0.691671 -0.171606 0.379972 0.462366
3 0 1 2
3 3 4 5
3 0 6 1
3 7 8 9
3 10 11 12
3 13 14 15
3 0 16 6
3 7 17 8
3 18 19 20
3 13 21 14
3 22 23 24
3 25 26 27
3 28 29 27
3 30 7 9
3 31 30 32
3 33 31 34
3 30 9 32
3 32 9 35
3 31 32 34
3 34 32 36
3 32 35 36
3 36 35 0
3 36 0 2
3 37 38 39
3 40 41 42
3 43 44 45
3 46 47 48
3 36 2 49
3 34 36 49
3 33 34 50
3 51 52 53
3 54 55 56
3 55 57 56
3 58 59 60
3 59 61 60
3 60 61 62
3 63 64 65
3 64 11 66
3 67 68 7
3 43 25 44
3 33 69 31
3 69 67 31
3 31 67 30
3 67 7 30
3 70 13 71
3 72 70 73
3 13 15 71
3 71 15 74
3 70 71 73
3 47 18 43
3 43 18 20
3 11 75 12
3 25 43 20
3 75 29 28
3 47 43 45
3 57 37 76
3 51 22 52
3 52 22 77
3 37 39 76
3 78 52 79
3 52 77 79
3 79 77 80
3 52 78 53
3 72 78 70
3 78 79 70
3 70 79 13
3 79 80 13
3 37 81 38
3 82 83 84
3 85 82 86
3 8 85 87
3 82 84 86
3 86 84 88
3 85 86 87
3 87 86 89
3 86 88 89
3 89 88 16
3 8 87 9
3 9 87 35
3 87 89 35
3 35 89 0
3 89 16 0
3 19 18 90
3 11 10 66
3 64 66 65
3 57 91 56
3 92 93 94
3 95 54 56
3 96 92 97
3 92 94 97
3 97 94 17
3 98 39 99
3 75 100 29
3 96 97 68
3 68 97 7
3 97 17 7
3 101 44 102
3 103 104 105
3 14 103 106
3 103 105 106
3 106 105 107
3 108 109 110
3 14 106 15
3 15 106 74
3 106 107 74
3 63 111 64
3 112 113 114
3 115 112 116
3 24 115 117
3 112 114 116
3 116 114 118
3 115 116 117
3 117 116 119
3 116 118 119
3 119 118 21
3 24 117 22
3 22 117 77
3 117 119 77
3 77 119 80
3 119 21 80
3 80 21 13
3 84 83 120
3 88 84 121
3 16 88 122
3 84 120 121
3 121 120 123
3 88 121 122
3 122 121 124
3 121 123 124
3 124 123 125
3 16 122 6
3 94 93 126
3 17 94 127
3 93 128 126
3 94 126 127
3 127 126 129
3 126 128 129
3 129 128 130
3 17 127 8
3 8 127 85
3 127 129 85
3 85 129 82
3 129 130 82
3 82 130 83
3 131 109 108
3 131 132 109
3 133 134 135
3 136 137 138
3 139 140 141
3 142 143 144
3 100 75 145
3 114 113 146
3 118 114 147
3 21 118 148
3 114 146 147
3 147 146 149
3 118 147 148
3 148 147 150
3 147 149 150
3 21 148 14
3 14 148 103
3 148 150 103
3 103 150 104
3 150 149 104
3 140 136 151
3 152 153 154
3 155 156 157
3 156 158 157
3 157 158 159
3 23 155 24
3 24 155 115
3 155 157 115
3 115 157 112
3 157 159 112
3 112 159 113
3 83 160 120
3 120 160 123
3 160 161 123
3 123 161 125
3 162 163 164
3 165 166 133
3 167 168 128
3 128 168 130
3 168 83 130
3 134 169 170
3 111 142 171
3 137 165 172
3 75 11 145
3 165 133 135
3 169 100 173
3 113 174 146
3 146 174 149
3 174 175 149
3 176 140 139
3 143 139 141
3 163 177 153
3 153 177 154
3 177 178 154
3 158 179 159
3 179 113 159
3 176 180 181
3 140 181 136
3 166 182 183
3 137 184 185
3 165 185 166
3 177 186 187
3 188 189 162
3 190 183 191
3 163 192 177
3 193 191 188
3 194 195 176
3 178 187 196
3 162 197 192
3 198 196 194
3 136 199 184
3 185 182 166
3 165 137 185
3 190 166 183
3 181 199 136
3 140 176 181
3 200 201 202
3 196 203 195
3 184 204 185
3 205 204 184
3 199 205 184
3 181 205 199
3 183 206 191
3 182 206 183
3 204 206 182
3 185 204 182
3 197 207 192
3 189 207 197
3 206 207 189
3 207 200 202
3 191 206 189
3 206 200 207
3 195 203 180
3 203 205 180
3 180 205 181
3 204 200 206
3 192 207 186
3 205 201 200
3 207 202 186
3 186 202 187
3 202 203 187
3 187 203 196
3 178 177 187
3 189 197 162
3 193 190 191
3 192 186 177
3 191 189 188
3 195 180 176
3 198 178 196
3 163 162 192
3 196 195 194
3 137 136 184
3 203 202 201
3 205 203 201
3 204 205 200
3 208 209 210
3 209 211 210
3 153 152 212
3 57 55 213
3 211 164 214
3 37 57 215
3 55 208 213
3 81 37 215
3 216 81 217
3 152 216 217
3 163 153 218
3 164 163 218
3 219 210 220
3 215 221 222
3 210 214 220
3 221 213 223
3 213 219 223
3 224 215 222
3 217 224 225
3 212 217 225
3 220 214 226
3 223 220 227
3 218 212 228
3 225 222 229
3 214 218 228
3 222 223 229
3 212 225 230
3 226 228 227
3 220 226 227
3 228 230 227
3 227 230 229
3 229 230 225
3 19 90 231
3 27 26 232
3 102 233 234
3 233 235 234
3 48 236 237
3 91 76 3
3 236 45 238
3 56 91 235
3 48 239 99
3 45 240 238
3 240 102 41
3 76 239 3
3 236 238 40
3 41 234 42
3 239 237 241
3 238 240 40
3 235 3 5
3 3 239 4
3 234 235 42
3 4 241 5
3 5 241 40
3 42 5 40
3 40 241 237
3 28 27 232
3 90 65 231
3 26 20 242
3 66 10 243
3 10 12 62
3 65 66 61
3 12 28 244
3 20 19 59
3 244 232 242
3 231 61 59
3 60 244 242
3 60 62 244
3 58 60 242
3 61 243 62
3 245 246 247
3 248 249 250
3 248 250 251
3 251 250 245
3 50 34 49
3 54 95 233
3 47 252 48
3 44 101 45
3 253 254 132
3 250 249 108
3 245 250 108
3 64 248 251
3 145 64 251
3 135 170 255
3 247 145 245
3 151 256 257
3 138 172 258
3 248 171 249
3 171 144 253
3 145 251 245
3 172 135 255
3 173 247 246
3 141 151 254
3 170 173 259
3 144 141 254
3 132 258 109
3 246 245 108
3 259 246 110
3 254 257 132
3 255 259 109
3 249 253 131
3 257 256 132
3 256 138 132
3 132 138 258
3 26 25 20
3 63 65 90
3 12 75 28
3 252 47 45
3 91 57 76
3 39 98 76
3 46 48 99
3 134 170 135
3 256 136 138
3 140 151 141
3 171 142 144
3 247 100 145
3 111 248 64
3 145 11 64
3 136 256 151
3 169 173 170
3 248 111 171
3 138 137 172
3 172 165 135
3 100 247 173
3 144 143 141
3 219 208 210
3 211 214 210
3 221 57 213
3 57 221 215
3 208 219 213
3 224 81 215
3 81 224 217
3 212 152 217
3 221 223 222
3 219 220 223
3 153 212 218
3 225 224 222
3 214 164 218
3 214 228 226
3 228 212 230
3 229 223 227
3 95 235 233
3 240 101 102
3 236 252 45
3 101 240 45
3 235 95 56
3 239 98 99
3 98 239 76
3 252 236 48
3 41 102 234
3 91 3 235
3 237 239 48
3 40 240 41
3 4 239 241
3 236 40 237
3 235 5 42
3 244 28 232
3 65 61 231
3 59 19 231
3 20 58 242
3 26 242 232
3 66 243 61
3 62 12 244
3 58 20 59
3 10 62 243
3 131 253 132
3 249 131 108
3 170 259 255
3 249 171 253
3 258 172 255
3 151 257 254
3 173 246 259
3 253 144 254
3 110 246 108
3 259 110 109
3 258 255 109
